
<svg id="icon-id" viewBox="0 0 18 18" fill="none" xmlns="http://www.w3.org/2000/svg">
<path d="M17.9109 15.9417C17.6627 16.4116 17.4393 16.7206 16.6954 17.1274H16.6898C16.3378 17.3347 15.9629 17.5005 15.5728 17.6215C13.7552 18.1967 11.8025 18.0886 9.93877 17.4848C8.00637 16.8545 5.73353 15.2845 4.18773 13.8123C2.71564 12.2665 1.14564 9.99356 0.515388 8.06054C-0.0889782 6.19674 -0.196459 4.24403 0.378646 2.42694C1.00721 0.416821 2.02518 0.106188 2.05838 0.0887429C2.25581 0.0170348 2.46626 -0.0117424 2.67569 0.00433162C3.24685 0.0251531 3.4635 0.216485 3.85741 0.632352C5.62999 3.28287 6.82522 4.81577 6.64289 4.53609C7.45716 5.78144 6.21185 5.84447 4.27664 7.34755C4.19898 7.52763 4.23725 8.19842 4.57038 8.68969C5.09934 9.46965 6.09649 10.5934 6.73237 11.267C7.40651 11.9029 8.53027 12.9007 9.30964 13.4297C9.80146 13.7628 10.4717 13.8011 10.6523 13.7234C12.1548 11.7876 12.2184 10.5428 13.4637 11.3571C13.184 11.1748 14.7169 12.37 17.3673 14.1427C17.7831 14.536 17.9739 14.7532 17.9947 15.3244C18.0144 15.5411 17.9773 15.7532 17.9103 15.9417H17.9109Z" fill="currentColor"/>
</svg>
