<svg width="17" height="17" viewBox="0 0 17 17" fill="none" xmlns="http://www.w3.org/2000/svg">
<path fill-rule="evenodd" clip-rule="evenodd" d="M2.40977 0.285706C1.51282 0.285706 0.785706 1.01282 0.785706 1.90977V14.9022C0.785706 15.7992 1.51282 16.5263 2.40977 16.5263H7.28195V13.3544L12.2441 8.41478L12.2456 8.41323C12.52 8.13917 12.8534 7.91481 13.2435 7.77295C13.4159 7.71026 13.5944 7.66267 13.7782 7.6323V0.285706H2.40977ZM13.7782 16.4479L13.6997 16.5263H13.7782V16.4479ZM4.03383 14.9022V1.90977H5.65789V14.9022H4.03383ZM8.90601 14.0293V16.5263H11.403L15.8692 12.0601C15.991 11.9383 16.0789 11.7996 16.1331 11.644C16.1872 11.4883 16.2143 11.3361 16.2143 11.1872C16.2143 11.0384 16.1838 10.8894 16.1229 10.7406C16.062 10.5917 15.9774 10.4564 15.8692 10.3346L15.118 9.58345C14.9962 9.46165 14.8609 9.37029 14.712 9.30939C14.5632 9.24849 14.4075 9.21804 14.2451 9.21804C14.0963 9.21804 13.9473 9.24508 13.7985 9.29924C13.6496 9.3534 13.5143 9.44135 13.3925 9.56315L8.90601 14.0293ZM14.9962 11.1872L14.2451 11.9789L13.4737 11.2075L14.2451 10.4361L14.9962 11.1872Z" fill="white"/>
</svg>
