<svg width="42" height="42" viewBox="0 0 42 42" fill="none" xmlns="http://www.w3.org/2000/svg">
<circle cx="21" cy="21" r="21" fill="#FC0170"/>
<path d="M20.9976 17.9986C19.345 17.9986 17.9964 19.3472 17.9964 20.9998C17.9964 22.6524 19.345 24.0011 20.9976 24.0011C22.6502 24.0011 23.9988 22.6524 23.9988 20.9998C23.9988 19.3472 22.6502 17.9986 20.9976 17.9986Z" fill="white"/>
<path d="M29.999 20.9998C29.999 19.757 30.0103 18.5255 29.9405 17.2849C29.8707 15.8439 29.5419 14.5651 28.4883 13.5114C27.4323 12.4555 26.1557 12.129 24.7148 12.0592C23.472 11.9894 22.2404 12.0007 20.9998 12.0007C19.757 12.0007 18.5255 11.9894 17.2849 12.0592C15.8439 12.129 14.5651 12.4577 13.5114 13.5114C12.4555 14.5674 12.129 15.8439 12.0592 17.2849C11.9894 18.5277 12.0007 19.7593 12.0007 20.9998C12.0007 22.2404 11.9894 23.4742 12.0592 24.7148C12.129 26.1557 12.4577 27.4346 13.5114 28.4883C14.5674 29.5442 15.8439 29.8707 17.2849 29.9405C18.5277 30.0103 19.7593 29.999 20.9998 29.999C22.2426 29.999 23.4742 30.0103 24.7148 29.9405C26.1557 29.8707 27.4346 29.5419 28.4883 28.4883C29.5442 27.4323 29.8707 26.1557 29.9405 24.7148C30.0125 23.4742 29.999 22.2426 29.999 20.9998ZM20.9976 25.6176C18.4422 25.6176 16.3798 23.5553 16.3798 20.9998C16.3798 18.4444 18.4422 16.382 20.9976 16.382C23.553 16.382 25.6154 18.4444 25.6154 20.9998C25.6154 23.5553 23.553 25.6176 20.9976 25.6176ZM25.8045 17.2714C25.2078 17.2714 24.726 16.7896 24.726 16.1929C24.726 15.5963 25.2078 15.1145 25.8045 15.1145C26.4011 15.1145 26.8829 15.5963 26.8829 16.1929C26.8807 16.7918 26.4011 17.2714 25.8045 17.2714Z" fill="white"/>
</svg>
