<svg width="42" height="42" viewBox="0 0 42 42" fill="none" xmlns="http://www.w3.org/2000/svg">
<circle cx="21" cy="21" r="21" fill="#E60023"/>
<path d="M12 20.9993C11.9992 22.8243 12.5532 24.6065 13.5886 26.1094C14.6241 27.6123 16.0919 28.7649 17.7975 29.4143C17.6715 28.5257 17.679 27.6232 17.82 26.7368L18.87 22.2818C18.87 22.2818 18.6 21.7493 18.6 20.9543C18.6 19.7093 19.32 18.7793 20.22 18.7793C20.985 18.7793 21.3525 19.3568 21.3525 20.0393C21.3525 20.8118 20.865 21.9593 20.61 23.0243C20.4 23.9168 21.06 24.6443 21.9375 24.6443C23.5275 24.6443 24.7575 22.9643 24.7575 20.5418C24.7575 18.3968 23.2125 16.8968 21.0075 16.8968C20.484 16.8745 19.9613 16.9585 19.4712 17.1439C18.981 17.3292 18.5335 17.6119 18.1557 17.975C17.7779 18.3382 17.4776 18.7741 17.2729 19.2565C17.0683 19.7389 16.9635 20.2578 16.965 20.7818C16.965 21.5543 17.265 22.3793 17.64 22.8293C17.7 22.9143 17.72 22.9993 17.7 23.0843L17.445 24.1043C17.415 24.2593 17.315 24.2993 17.145 24.2243C16.0275 23.6993 15.33 22.0643 15.33 20.7518C15.33 17.9243 17.385 15.3293 21.255 15.3293C24.36 15.3293 26.775 17.5418 26.775 20.5043C26.775 23.5943 24.825 26.0768 22.125 26.0768C21.2175 26.0768 20.3625 25.6043 20.07 25.0493L19.515 27.1793C19.2328 28.0332 18.8421 28.8474 18.3525 29.6018C20.1633 30.1591 22.1037 30.1308 23.8975 29.5208C25.6912 28.9109 27.2467 27.7504 28.3424 26.2048C29.438 24.6592 30.018 22.8072 29.9996 20.9127C29.9812 19.0181 29.3654 17.1778 28.2399 15.6537C27.1145 14.1296 25.5368 12.9995 23.7315 12.4245C21.9263 11.8495 19.9857 11.8589 18.186 12.4512C16.3864 13.0436 14.8197 14.1888 13.7089 15.7236C12.5982 17.2585 12.0002 19.1047 12 20.9993Z" fill="white"/>
</svg>
