<svg viewBox="0 0 42 42" fill="none" xmlns="http://www.w3.org/2000/svg">
<circle cx="21" cy="21" r="21" fill="#F8B934"/>
<path fill-rule="evenodd" clip-rule="evenodd" d="M14 10C12.8954 10 12 10.8954 12 12V30C12 31.1046 12.8954 32 14 32H28C29.1046 32 30 31.1046 30 30V12C30 10.8954 29.1046 10 28 10H14ZM24.15 21.9167L27.75 25.5833V19.1667H14.25V29.7083H16.1175L24.15 21.9167ZM15.6 22.8333C15.6 21.8208 16.4059 21 17.4 21C18.3941 21 19.2 21.8208 19.2 22.8333C19.2 23.8459 18.3941 24.6667 17.4 24.6667C16.4059 24.6667 15.6 23.8459 15.6 22.8333ZM22 13.4375H27.75V15.7292H22V13.4375ZM20 13.4375H14.25V15.7292H20V13.4375Z" fill="white"/>
</svg>
