<svg width="42" height="42" viewBox="0 0 42 42" fill="none" xmlns="http://www.w3.org/2000/svg">
<circle cx="21" cy="21" r="21" fill="#30D14E"/>
<path d="M20.9975 11H21.0025C26.5167 11 31 15.4858 31 21C31 26.5142 26.5158 31 21.0025 31C18.9692 31 17.0825 30.3942 15.5025 29.3483L11.6583 30.5767L12.9042 26.8608C11.6638 25.1587 10.9969 23.1061 11 21C11 15.4858 15.4842 11 20.9975 11ZM18.1367 16.4967C17.9458 16.0408 17.8008 16.0233 17.5117 16.0117C17.4018 16.0045 17.2918 16.0006 17.1817 16C16.805 16 16.4117 16.11 16.1733 16.3525C15.8858 16.6467 15.1667 17.3333 15.1667 18.7442C15.1667 20.1533 16.1975 21.5167 16.3358 21.7075C16.4808 21.8975 18.3458 24.8325 21.24 26.0283C23.5042 26.9642 24.1758 26.8775 24.6917 26.7675C25.4442 26.6058 26.3875 26.0508 26.625 25.3817C26.8625 24.7108 26.8625 24.1392 26.7933 24.0175C26.7233 23.8967 26.5325 23.8275 26.2433 23.6825C25.9533 23.5383 24.5467 22.845 24.28 22.7525C24.0192 22.655 23.7708 22.6892 23.5742 22.9667C23.2958 23.3533 23.0242 23.7467 22.8033 23.9833C22.63 24.1683 22.3458 24.1917 22.1092 24.0933C21.7908 23.96 20.8992 23.6483 19.7983 22.6717C18.9475 21.915 18.3683 20.9733 18.2008 20.6908C18.0325 20.4017 18.1833 20.2342 18.3167 20.0783C18.4608 19.8992 18.6 19.7725 18.745 19.605C18.89 19.4375 18.97 19.3508 19.0633 19.1542C19.1617 18.9633 19.0925 18.7667 19.0225 18.6225C18.9533 18.4783 18.3742 17.0683 18.1367 16.4975V16.4967Z" fill="white"/>
</svg>
